<mxfile host="app.diagrams.net" modified="2023-01-08T12:54:47.504Z" agent="5.0 (Windows NT 10.0; Win64; x64) AppleWebKit/537.36 (KHTML, like Gecko) Chrome/107.0.0.0 Safari/537.36" version="20.8.1" etag="nN-SgDOl1FUAEOcbDkCD" type="github">
  <diagram id="tbVq_LCjMypmB-ilngMA" name="Page-1">
    <mxGraphModel dx="1323" dy="783" grid="1" gridSize="10" guides="1" tooltips="1" connect="1" arrows="1" fold="1" page="1" pageScale="1" pageWidth="1200" pageHeight="1920" background="#142844" math="0" shadow="0">
      <root>
        <mxCell id="0" />
        <mxCell id="1" parent="0" />
        <mxCell id="kIqx7yD8WtJ6MWD0_haB-1" value="" style="rounded=1;whiteSpace=wrap;html=1;fillColor=none;dashed=1;dashPattern=12 12;strokeColor=#FFFFFF;" vertex="1" parent="1">
          <mxGeometry x="50" y="100" width="210" height="710" as="geometry" />
        </mxCell>
        <mxCell id="kIqx7yD8WtJ6MWD0_haB-2" value="" style="rounded=1;whiteSpace=wrap;html=1;fillColor=none;dashed=1;dashPattern=12 12;strokeColor=#FFFFFF;" vertex="1" parent="1">
          <mxGeometry x="390" y="100" width="210" height="260" as="geometry" />
        </mxCell>
        <mxCell id="kIqx7yD8WtJ6MWD0_haB-3" value="" style="rounded=1;whiteSpace=wrap;html=1;fillColor=none;dashed=1;dashPattern=12 12;strokeColor=#FFFFFF;" vertex="1" parent="1">
          <mxGeometry x="680" y="110" width="210" height="260" as="geometry" />
        </mxCell>
        <mxCell id="kIqx7yD8WtJ6MWD0_haB-5" value="&lt;font color=&quot;#ffffff&quot;&gt;Stage 1&lt;/font&gt;" style="text;html=1;align=center;verticalAlign=middle;resizable=0;points=[];autosize=1;strokeColor=none;fillColor=none;" vertex="1" parent="1">
          <mxGeometry x="120" y="20" width="60" height="30" as="geometry" />
        </mxCell>
        <mxCell id="kIqx7yD8WtJ6MWD0_haB-6" value="&lt;font color=&quot;#ffffff&quot;&gt;Stage 2&lt;/font&gt;" style="text;html=1;align=center;verticalAlign=middle;resizable=0;points=[];autosize=1;strokeColor=none;fillColor=none;" vertex="1" parent="1">
          <mxGeometry x="465" y="390" width="60" height="30" as="geometry" />
        </mxCell>
        <mxCell id="kIqx7yD8WtJ6MWD0_haB-7" value="&lt;font color=&quot;#ffffff&quot;&gt;Stage 3&lt;/font&gt;" style="text;html=1;align=center;verticalAlign=middle;resizable=0;points=[];autosize=1;strokeColor=none;fillColor=none;" vertex="1" parent="1">
          <mxGeometry x="755" y="390" width="60" height="30" as="geometry" />
        </mxCell>
        <mxCell id="kIqx7yD8WtJ6MWD0_haB-8" value="&lt;font style=&quot;font-size: 15px;&quot; color=&quot;#ffffff&quot;&gt;Filtering Based on Following&lt;br&gt;Parameters&lt;br&gt;&lt;/font&gt;" style="text;html=1;align=center;verticalAlign=middle;resizable=0;points=[];autosize=1;strokeColor=none;fillColor=none;" vertex="1" parent="1">
          <mxGeometry x="50" y="50" width="210" height="50" as="geometry" />
        </mxCell>
        <mxCell id="kIqx7yD8WtJ6MWD0_haB-18" value="&lt;span style=&quot;color: rgb(36, 36, 36); font-family: -apple-system, BlinkMacSystemFont, &amp;quot;Segoe UI&amp;quot;, system-ui, &amp;quot;Apple Color Emoji&amp;quot;, &amp;quot;Segoe UI Emoji&amp;quot;, &amp;quot;Segoe UI Web&amp;quot;, sans-serif; font-size: 14px; text-align: start;&quot;&gt;% in Core Subjects&lt;/span&gt;" style="rounded=1;whiteSpace=wrap;html=1;dashed=1;dashPattern=12 12;labelBackgroundColor=#FFFFFF;strokeColor=none;fontSize=10;fontColor=#FFFFFF;fillColor=none;" vertex="1" parent="1">
          <mxGeometry x="95" y="130" width="120" height="60" as="geometry" />
        </mxCell>
        <mxCell id="kIqx7yD8WtJ6MWD0_haB-22" value="&lt;span style=&quot;color: rgb(36, 36, 36); font-family: -apple-system, BlinkMacSystemFont, &amp;quot;Segoe UI&amp;quot;, system-ui, &amp;quot;Apple Color Emoji&amp;quot;, &amp;quot;Segoe UI Emoji&amp;quot;, &amp;quot;Segoe UI Web&amp;quot;, sans-serif; font-size: 14px; text-align: start;&quot;&gt;CGPA&lt;/span&gt;" style="rounded=1;whiteSpace=wrap;html=1;dashed=1;dashPattern=12 12;labelBackgroundColor=#FFFFFF;strokeColor=none;fontSize=10;fontColor=#FFFFFF;fillColor=none;" vertex="1" parent="1">
          <mxGeometry x="95" y="100" width="120" height="60" as="geometry" />
        </mxCell>
        <mxCell id="kIqx7yD8WtJ6MWD0_haB-23" value="&lt;span style=&quot;color: rgb(36, 36, 36); font-family: -apple-system, BlinkMacSystemFont, &amp;quot;Segoe UI&amp;quot;, system-ui, &amp;quot;Apple Color Emoji&amp;quot;, &amp;quot;Segoe UI Emoji&amp;quot;, &amp;quot;Segoe UI Web&amp;quot;, sans-serif; font-size: 14px; text-align: start;&quot;&gt;Open source contribution and its impact&lt;/span&gt;" style="rounded=1;whiteSpace=wrap;html=1;dashed=1;dashPattern=12 12;labelBackgroundColor=#FFFFFF;strokeColor=none;fontSize=10;fontColor=#FFFFFF;fillColor=none;" vertex="1" parent="1">
          <mxGeometry x="80" y="740" width="165" height="60" as="geometry" />
        </mxCell>
        <mxCell id="kIqx7yD8WtJ6MWD0_haB-24" value="&lt;span style=&quot;text-align: start;&quot;&gt;&lt;font face=&quot;-apple-system, BlinkMacSystemFont, Segoe UI, system-ui, Apple Color Emoji, Segoe UI Emoji, Segoe UI Web, sans-serif&quot; color=&quot;#242424&quot;&gt;&lt;span style=&quot;font-size: 14px;&quot;&gt;&amp;nbsp;Extra Curricular&amp;nbsp;Activities done - (hackathon or webinar attended)&lt;/span&gt;&lt;/font&gt;&lt;/span&gt;" style="rounded=1;whiteSpace=wrap;html=1;dashed=1;dashPattern=12 12;labelBackgroundColor=#FFFFFF;strokeColor=none;fontSize=10;fontColor=#FFFFFF;fillColor=none;" vertex="1" parent="1">
          <mxGeometry x="60" y="230" width="190" height="60" as="geometry" />
        </mxCell>
        <mxCell id="kIqx7yD8WtJ6MWD0_haB-25" value="&lt;span style=&quot;color: rgb(36, 36, 36); font-family: -apple-system, BlinkMacSystemFont, &amp;quot;Segoe UI&amp;quot;, system-ui, &amp;quot;Apple Color Emoji&amp;quot;, &amp;quot;Segoe UI Emoji&amp;quot;, &amp;quot;Segoe UI Web&amp;quot;, sans-serif; font-size: 14px; text-align: start;&quot;&gt;Number of internships done&lt;/span&gt;" style="rounded=1;whiteSpace=wrap;html=1;dashed=1;dashPattern=12 12;labelBackgroundColor=#FFFFFF;strokeColor=none;fontSize=10;fontColor=#FFFFFF;fillColor=none;" vertex="1" parent="1">
          <mxGeometry x="95" y="170" width="120" height="60" as="geometry" />
        </mxCell>
        <mxCell id="kIqx7yD8WtJ6MWD0_haB-26" value="&lt;span style=&quot;color: rgb(36, 36, 36); font-family: -apple-system, BlinkMacSystemFont, &amp;quot;Segoe UI&amp;quot;, system-ui, &amp;quot;Apple Color Emoji&amp;quot;, &amp;quot;Segoe UI Emoji&amp;quot;, &amp;quot;Segoe UI Web&amp;quot;, sans-serif; font-size: 14px; text-align: start;&quot;&gt;Number of back logs&lt;/span&gt;" style="rounded=1;whiteSpace=wrap;html=1;dashed=1;dashPattern=12 12;labelBackgroundColor=#FFFFFF;strokeColor=none;fontSize=10;fontColor=#FFFFFF;fillColor=none;" vertex="1" parent="1">
          <mxGeometry x="80" y="340" width="140" height="60" as="geometry" />
        </mxCell>
        <mxCell id="kIqx7yD8WtJ6MWD0_haB-27" value="&lt;span style=&quot;color: rgb(36, 36, 36); font-family: -apple-system, BlinkMacSystemFont, &amp;quot;Segoe UI&amp;quot;, system-ui, &amp;quot;Apple Color Emoji&amp;quot;, &amp;quot;Segoe UI Emoji&amp;quot;, &amp;quot;Segoe UI Web&amp;quot;, sans-serif; font-size: 14px; text-align: start;&quot;&gt;Number of Certifications done&lt;/span&gt;" style="rounded=1;whiteSpace=wrap;html=1;dashed=1;dashPattern=12 12;labelBackgroundColor=#FFFFFF;strokeColor=none;fontSize=10;fontColor=#FFFFFF;fillColor=none;" vertex="1" parent="1">
          <mxGeometry x="90" y="290" width="120" height="60" as="geometry" />
        </mxCell>
        <mxCell id="kIqx7yD8WtJ6MWD0_haB-28" value="&lt;span style=&quot;color: rgb(36, 36, 36); font-family: -apple-system, BlinkMacSystemFont, &amp;quot;Segoe UI&amp;quot;, system-ui, &amp;quot;Apple Color Emoji&amp;quot;, &amp;quot;Segoe UI Emoji&amp;quot;, &amp;quot;Segoe UI Web&amp;quot;, sans-serif; font-size: 14px; text-align: start;&quot;&gt;&amp;nbsp;Leadership experience&lt;/span&gt;" style="rounded=1;whiteSpace=wrap;html=1;dashed=1;dashPattern=12 12;labelBackgroundColor=#FFFFFF;strokeColor=none;fontSize=10;fontColor=#FFFFFF;fillColor=none;" vertex="1" parent="1">
          <mxGeometry x="72.5" y="700" width="165" height="60" as="geometry" />
        </mxCell>
        <mxCell id="kIqx7yD8WtJ6MWD0_haB-29" value="&lt;span style=&quot;color: rgb(36, 36, 36); font-family: -apple-system, BlinkMacSystemFont, &amp;quot;Segoe UI&amp;quot;, system-ui, &amp;quot;Apple Color Emoji&amp;quot;, &amp;quot;Segoe UI Emoji&amp;quot;, &amp;quot;Segoe UI Web&amp;quot;, sans-serif; font-size: 14px; text-align: start;&quot;&gt;&amp;nbsp;Any foreign education scholarship&lt;/span&gt;" style="rounded=1;whiteSpace=wrap;html=1;dashed=1;dashPattern=12 12;labelBackgroundColor=#FFFFFF;strokeColor=none;fontSize=10;fontColor=#FFFFFF;fillColor=none;" vertex="1" parent="1">
          <mxGeometry x="72.5" y="660" width="165" height="60" as="geometry" />
        </mxCell>
        <mxCell id="kIqx7yD8WtJ6MWD0_haB-30" value="&lt;span style=&quot;color: rgb(36, 36, 36); font-family: -apple-system, BlinkMacSystemFont, &amp;quot;Segoe UI&amp;quot;, system-ui, &amp;quot;Apple Color Emoji&amp;quot;, &amp;quot;Segoe UI Emoji&amp;quot;, &amp;quot;Segoe UI Web&amp;quot;, sans-serif; font-size: 14px; text-align: start;&quot;&gt;&amp;nbsp;Number of Letters of recommendation and reason for it&lt;/span&gt;" style="rounded=1;whiteSpace=wrap;html=1;dashed=1;dashPattern=12 12;labelBackgroundColor=#FFFFFF;strokeColor=none;fontSize=10;fontColor=#FFFFFF;fillColor=none;" vertex="1" parent="1">
          <mxGeometry x="72.5" y="600" width="165" height="60" as="geometry" />
        </mxCell>
        <mxCell id="kIqx7yD8WtJ6MWD0_haB-31" value="&lt;span style=&quot;color: rgb(36, 36, 36); font-family: -apple-system, BlinkMacSystemFont, &amp;quot;Segoe UI&amp;quot;, system-ui, &amp;quot;Apple Color Emoji&amp;quot;, &amp;quot;Segoe UI Emoji&amp;quot;, &amp;quot;Segoe UI Web&amp;quot;, sans-serif; font-size: 14px; text-align: start;&quot;&gt;&amp;nbsp;Attendance percentage - this will help org to judge an individual better about the consistency&lt;/span&gt;" style="rounded=1;whiteSpace=wrap;html=1;dashed=1;dashPattern=12 12;labelBackgroundColor=#FFFFFF;strokeColor=none;fontSize=10;fontColor=#FFFFFF;fillColor=none;" vertex="1" parent="1">
          <mxGeometry x="72.5" y="530" width="165" height="60" as="geometry" />
        </mxCell>
        <mxCell id="kIqx7yD8WtJ6MWD0_haB-32" value="&lt;span style=&quot;color: rgb(36, 36, 36); font-family: -apple-system, BlinkMacSystemFont, &amp;quot;Segoe UI&amp;quot;, system-ui, &amp;quot;Apple Color Emoji&amp;quot;, &amp;quot;Segoe UI Emoji&amp;quot;, &amp;quot;Segoe UI Web&amp;quot;, sans-serif; font-size: 14px; text-align: start;&quot;&gt;Count of research paper if published any&lt;/span&gt;" style="rounded=1;whiteSpace=wrap;html=1;dashed=1;dashPattern=12 12;labelBackgroundColor=#FFFFFF;strokeColor=none;fontSize=10;fontColor=#FFFFFF;fillColor=none;" vertex="1" parent="1">
          <mxGeometry x="72.5" y="470" width="165" height="60" as="geometry" />
        </mxCell>
        <mxCell id="kIqx7yD8WtJ6MWD0_haB-33" value="&lt;span style=&quot;color: rgb(36, 36, 36); font-family: -apple-system, BlinkMacSystemFont, &amp;quot;Segoe UI&amp;quot;, system-ui, &amp;quot;Apple Color Emoji&amp;quot;, &amp;quot;Segoe UI Emoji&amp;quot;, &amp;quot;Segoe UI Web&amp;quot;, sans-serif; font-size: 14px; text-align: start;&quot;&gt;&amp;nbsp;Number of projects done and on which field&lt;/span&gt;" style="rounded=1;whiteSpace=wrap;html=1;dashed=1;dashPattern=12 12;labelBackgroundColor=#FFFFFF;strokeColor=none;fontSize=10;fontColor=#FFFFFF;fillColor=none;" vertex="1" parent="1">
          <mxGeometry x="72.5" y="430" width="165" height="60" as="geometry" />
        </mxCell>
        <mxCell id="kIqx7yD8WtJ6MWD0_haB-34" value="&lt;span style=&quot;color: rgb(36, 36, 36); font-family: -apple-system, BlinkMacSystemFont, &amp;quot;Segoe UI&amp;quot;, system-ui, &amp;quot;Apple Color Emoji&amp;quot;, &amp;quot;Segoe UI Emoji&amp;quot;, &amp;quot;Segoe UI Web&amp;quot;, sans-serif; font-size: 14px; text-align: start;&quot;&gt;Students in global uni program&lt;/span&gt;" style="rounded=1;whiteSpace=wrap;html=1;dashed=1;dashPattern=12 12;labelBackgroundColor=#FFFFFF;strokeColor=none;fontSize=10;fontColor=#FFFFFF;fillColor=none;" vertex="1" parent="1">
          <mxGeometry x="72.5" y="380" width="165" height="60" as="geometry" />
        </mxCell>
      </root>
    </mxGraphModel>
  </diagram>
</mxfile>
